<svg width="0" height="0" class="hidden">
  <symbol version="1.1" xmlns="http://www.w3.org/2000/svg" viewBox="0 0 512 512" id="facebook">
    <g id="icomoon-ignore"></g>
    <path fill="#fff" d="M256 42.666c-117.824 0-213.333 95.509-213.333 213.334 0 106.475 78.016 194.731 180.011 210.752v-149.099h-54.186v-61.654h54.186v-46.998c0-53.462 31.829-82.987 80.576-82.987 23.339 0 47.744 4.16 47.744 4.16v52.48h-26.88c-26.517 0-34.774 16.448-34.774 33.322v40.022h59.158l-9.45 61.653h-49.707v149.099c101.974-16 179.989-104.298 179.989-210.752 0-117.824-95.51-213.333-213.333-213.333z"></path>
  </symbol>
  <symbol version="1.1" xmlns="http://www.w3.org/2000/svg" viewBox="0 0 512 512" id="instagram">
    <g id="icomoon-ignore"></g>
    <path fill="#fff" d="M256 42.666c57.962 0 65.195 0.214 87.936 1.28 22.72 1.066 38.187 4.63 51.798 9.92 14.080 5.419 25.942 12.757 37.803 24.597 10.848 10.665 19.243 23.564 24.598 37.803 5.269 13.589 8.853 29.077 9.92 51.798 1.002 22.742 1.28 29.974 1.28 87.936s-0.214 65.195-1.28 87.936c-1.067 22.72-4.651 38.187-9.92 51.798-5.339 14.247-13.736 27.149-24.598 37.803-10.666 10.844-23.567 19.238-37.803 24.598-13.589 5.269-29.077 8.853-51.798 9.92-22.741 1.002-29.974 1.28-87.936 1.28s-65.195-0.214-87.936-1.28c-22.72-1.067-38.186-4.651-51.797-9.92-14.243-5.344-27.146-13.741-37.802-24.598-10.85-10.663-19.244-23.563-24.597-37.803-5.291-13.589-8.853-29.077-9.92-51.798-1.002-22.741-1.28-29.974-1.28-87.936s0.214-65.195 1.28-87.936c1.066-22.742 4.63-38.186 9.92-51.797 5.338-14.247 13.734-27.151 24.597-37.802 10.659-10.854 23.561-19.248 37.803-24.597 13.611-5.291 29.056-8.853 51.798-9.92 22.742-1.002 29.974-1.28 87.936-1.28zM256 149.333c-28.29 0-55.421 11.238-75.424 31.242s-31.242 47.135-31.242 75.424c0 28.29 11.238 55.422 31.242 75.424 20.004 20.005 47.135 31.243 75.424 31.243s55.422-11.238 75.424-31.243c20.005-20.002 31.243-47.134 31.243-75.424s-11.238-55.421-31.243-75.424c-20.002-20.004-47.134-31.242-75.424-31.242zM394.666 144c0-7.072-2.81-13.855-7.81-18.856s-11.784-7.811-18.856-7.811c-7.072 0-13.856 2.809-18.856 7.811s-7.81 11.784-7.81 18.856c0 7.072 2.81 13.855 7.81 18.856s11.784 7.81 18.856 7.81c7.072 0 13.856-2.81 18.856-7.81s7.81-11.784 7.81-18.856zM256 192c16.973 0 33.252 6.743 45.255 18.745s18.745 28.282 18.745 45.255c0 16.973-6.743 33.252-18.745 45.255s-28.281 18.745-45.255 18.745c-16.973 0-33.252-6.743-45.255-18.745s-18.745-28.281-18.745-45.255c0-16.973 6.743-33.252 18.745-45.255s28.282-18.745 45.255-18.745z"></path>
  </symbol>
  <symbol version="1.1" xmlns="http://www.w3.org/2000/svg" viewBox="0 0 512 512" id="youtube">
    <g id="icomoon-ignore"></g>
    <path fill="#fff" d="M459.584 138.624c9.75 38.016 9.75 117.376 9.75 117.376s0 79.36-9.75 117.376c-5.418 21.014-21.269 37.546-41.344 43.136-36.459 10.154-162.24 10.154-162.24 10.154s-125.718 0-162.24-10.154c-20.16-5.675-35.989-22.187-41.344-43.136-9.749-38.016-9.749-117.376-9.749-117.376s0-79.36 9.749-117.376c5.419-21.013 21.27-37.547 41.344-43.136 36.523-10.154 162.24-10.154 162.24-10.154s125.781 0 162.24 10.154c20.16 5.674 35.99 22.186 41.344 43.136zM213.333 330.666l128-74.666-128-74.666v149.334z"></path>
  </symbol>
  <symbol version="1.1" xmlns="http://www.w3.org/2000/svg" viewBox="0 0 512 512" id="twiter">
    <g id="icomoon-ignore"></g>
    <path fill="#fff" d="M472.789 120.66c-16.286 7.204-33.558 11.935-51.243 14.037 18.639-11.148 32.591-28.693 39.253-49.365-17.493 10.41-36.672 17.707-56.661 21.654-13.427-14.367-31.224-23.894-50.626-27.102-19.401-3.208-39.317 0.084-56.653 9.362-17.337 9.279-31.123 24.026-39.215 41.949s-10.035 38.016-5.528 57.156c-35.475-1.778-70.18-10.997-101.861-27.058s-59.63-38.605-82.033-66.168c-7.93 13.62-12.097 29.103-12.075 44.864 0 30.934 15.744 58.261 39.68 74.261-14.165-0.446-28.019-4.27-40.406-11.156v1.109c0.005 20.601 7.133 40.567 20.178 56.513 13.045 15.945 31.203 26.889 51.395 30.974-13.15 3.565-26.938 4.089-40.32 1.536 5.693 17.735 16.79 33.241 31.736 44.354s32.993 17.274 51.614 17.619c-18.507 14.536-39.697 25.28-62.36 31.62s-46.352 8.151-69.715 5.329c40.783 26.229 88.258 40.151 136.747 40.106 164.118 0 253.867-135.958 253.867-253.866 0-3.84-0.106-7.722-0.277-11.52 17.47-12.626 32.546-28.266 44.522-46.186l-0.022-0.022z"></path>
  </symbol>
  <symbol version="1.1" xmlns="http://www.w3.org/2000/svg" viewBox="0 0 512 512" id="coffee-cup">
    <g id="icomoon-ignore"></g>
    <path fill="#000" d="M198.467 187.671c-98.202 0-197.624-25.175-197.624-73.297s99.376-73.267 197.624-73.267 197.639 25.16 197.639 73.267-99.421 73.297-197.639 73.297zM198.467 71.22c-103.894 0-167.51 27.946-167.51 43.154s63.601 43.184 167.51 43.184 167.525-27.961 167.525-43.184-63.601-43.154-167.525-43.154z"></path>
    <path fill="#000" d="M198.467 470.969c-61.388 0-123.347-15.328-123.347-49.598l15.057-0.527 15.057 0.632c2.921 4.743 34.3 19.378 93.234 19.378s90.343-14.635 93.489-20.733l28.608 9.351c-9.742 30.641-71.868 41.497-122.097 41.497z"></path>
    <path fill="#000" d="M198.211 431.535c-73.779 0-122.112-9.139-147.679-27.946-3.748-2.773-6.15-7.178-6.15-12.144 0-8.32 6.745-15.064 15.064-15.064 3.353 0 6.451 1.096 8.954 2.949l-0.041-0.029c13.702 10.073 47.355 22.089 129.837 22.089 66.462 0 108.411-6.233 128.361-19.032 2.383-1.654 5.337-2.643 8.521-2.643 8.316 0 15.057 6.741 15.057 15.057 0 5.445-2.89 10.215-7.221 12.86l-0.066 0.038c-25.612 16.517-70.226 23.865-144.638 23.865z"></path>
    <path fill="#000" d="M320.579 429.457l-26.621-8.432 21.607-17.12c3.828 4.744 6.175 10.822 6.264 17.447v0.019c-0.007 2.889-0.464 5.67-1.303 8.279l0.053-0.192z"></path>
    <path fill="#000" d="M306.245 433.884c-0 0-0.002 0-0.002 0-8.316 0-15.057-6.741-15.057-15.057 0-5.786 3.264-10.81 8.051-13.331l0.082-0.039c72.154-37.327 71.295-213.238 64.866-277.878-0.048-0.451-0.075-0.975-0.075-1.505 0-8.316 6.741-15.057 15.057-15.057 7.786 0 14.191 5.909 14.976 13.487l0.005 0.064c1.039 10.329 23.911 253.35-81.007 307.601-1.999 1.074-4.373 1.708-6.894 1.716h-0.002z"></path>
    <path fill="#000" d="M298.341 348.345c-0.011 0-0.024 0-0.038 0-8.316 0-15.057-6.741-15.057-15.057 0-2.178 0.462-4.249 1.295-6.118l-0.038 0.096c12.639-34.409 19.95-74.144 19.95-115.587 0-1.135-0.005-2.269-0.017-3.401l0.002 0.173c0.543-8.156 7.269-14.572 15.504-14.62h0.005c8.122 0.248 14.611 6.892 14.611 15.050 0 0.15-0.002 0.3-0.007 0.45l0-0.022c0.005 0.756 0.009 1.649 0.009 2.544 0 45.672-8.205 89.429-23.223 129.875l0.839-2.582c-2.341 5.442-7.65 9.185-13.836 9.2h-0.002z"></path>
    <path fill="#000" d="M90.689 433.884c-2.52-0.005-4.894-0.628-6.978-1.726l0.082 0.039c-104.903-54.206-82.016-297.272-80.992-307.601 0.79-7.642 7.196-13.552 14.982-13.552 8.316 0 15.057 6.742 15.057 15.057 0 0.531-0.028 1.054-0.081 1.57l0.005-0.064c-6.399 64.655-7.212 240.596 64.866 277.878 4.87 2.56 8.133 7.584 8.133 13.37 0 8.316-6.742 15.057-15.057 15.057-0.006 0-0.013 0-0.019 0h0.001z"></path>
    <path fill="#000" d="M386.319 396.136c-0.106 0-0.232 0.001-0.358 0.001-9.273 0-18.014-2.278-25.695-6.305l0.305 0.146c-7.441-3.923-13.647-9.234-18.48-15.641l-0.101-0.139c-1.908-2.497-3.057-5.661-3.057-9.094 0-8.316 6.741-15.057 15.057-15.057 4.882 0 9.223 2.324 11.974 5.926l0.026 0.036c2.233 2.992 5.044 5.423 8.284 7.162l0.134 0.065c4.137 1.47 8.907 2.319 13.877 2.319 10.341 0 19.824-3.679 27.21-9.8l-0.071 0.057c39.815-29.181 65.586-75.493 66.37-127.861l0.002-0.124c0.075-0.948 0.118-2.054 0.118-3.168 0-14.192-6.919-26.769-17.567-34.541l-0.122-0.084c-19.996-10.344-47.641 2.379-70.603 32.343-2.781 3.602-7.099 5.9-11.956 5.9-8.318 0-15.063-6.744-15.063-15.063 0-3.463 1.168-6.653 3.133-9.197l-0.026 0.035c32.313-42.16 74.834-58.136 108.411-40.745 20.447 12.513 33.886 34.725 33.886 60.075 0 1.081-0.024 2.156-0.073 3.226l0.005-0.152c-0.248 63.642-31.623 119.903-79.682 154.381l-0.572 0.39c-12.717 8.833-28.346 14.324-45.224 14.902l-0.144 0.004z"></path>
  </symbol>
  <symbol version="1.1" xmlns="http://www.w3.org/2000/svg" viewBox="0 0 512 512" id="best-price">
    <g id="icomoon-ignore"></g>
    <path fill="#000" d="M256 21.334c11.783 0 21.334 9.552 21.334 21.334v21.334h21.334c25.067 0 45.284 6.328 61.167 16.916 15.748 10.499 25.982 24.346 32.581 37.543 6.558 13.114 9.73 25.97 11.296 35.367 0.791 4.749 1.195 8.754 1.401 11.654 0.171 2.364 0.219 3.738 0.222 5.165 0 11.635-9.69 21.355-21.334 21.355-11.746 0-21.276-9.5-21.334-21.234-0.087-3.325-0.497-6.648-1.043-9.925-1.101-6.603-3.262-15.081-7.37-23.3-4.068-8.136-9.834-15.623-18.087-21.124-8.118-5.412-19.899-9.751-37.5-9.751h-21.334v128h21.334c34.897 0 62.745 12.879 81.726 33.585 18.666 20.363 27.608 47.021 27.608 73.082s-8.941 52.719-27.608 73.082c-18.981 20.706-46.829 33.585-81.726 33.585h-21.334v21.334c0 11.783-9.551 21.334-21.334 21.334s-21.334-9.551-21.334-21.334v-21.334h-21.334c-25.066 0-45.285-6.327-61.167-16.915-15.749-10.5-25.982-24.348-32.581-37.544-6.557-13.113-9.729-25.969-11.295-35.366-0.791-4.749-1.195-8.753-1.403-11.654-0.169-2.377-0.22-3.752-0.221-5.186 0-11.783 9.551-21.334 21.334-21.334 11.746 0 21.277 9.502 21.333 21.233 0.088 3.326 0.497 6.649 1.043 9.926 1.101 6.603 3.262 15.081 7.371 23.3 4.068 8.137 9.835 15.623 18.086 21.122 8.118 5.413 19.899 9.752 37.5 9.752h21.334v-128h-21.334c-28.454 0-52.223-8.563-70.319-22.948-4.097-3.257-7.904-6.814-11.407-10.637-18.666-20.363-27.608-47.022-27.608-73.082s8.942-52.719 27.608-73.082c18.981-20.706 46.829-33.584 81.726-33.584h21.334v-21.334c0-11.782 9.551-21.334 21.334-21.334zM234.667 106.666h-21.333c-23.769 0-39.921 8.454-50.274 19.748-10.667 11.637-16.392 27.644-16.392 44.251s5.725 32.614 16.392 44.251c10.353 11.294 26.505 19.749 50.274 19.749h21.334v-128zM277.334 277.334v128h21.334c23.769 0 39.921-8.454 50.274-19.748 10.666-11.637 16.392-27.646 16.392-44.252s-5.726-32.615-16.392-44.252c-10.353-11.294-26.505-19.748-50.274-19.748h-21.334z"></path>
  </symbol>
  <symbol version="1.1" xmlns="http://www.w3.org/2000/svg" viewBox="0 0 512 512" id="badge">
    <g id="icomoon-ignore"></g>
    <path fill="#000" d="M432 176c0-97.048-78.952-176-176-176s-176 78.952-176 176c0 54.528 24.936 103.36 64 135.664v184.336c0 6.064 3.424 11.6 8.84 14.312 2.264 1.136 4.712 1.688 7.144 1.688 3.408 0 6.784-1.088 9.616-3.2l86.4-64.8 86.4 64.8c2.832 2.12 6.2 3.2 9.6 3.2 2.44 0 4.888-0.552 7.16-1.688 5.416-2.712 8.84-8.248 8.84-14.312v-184.336c39.064-32.304 64-81.136 64-135.664zM160 496v-172.6c5.16 3.368 10.496 6.472 16 9.288v151.312l-16 12zM256 424l-64 48v-132.104c19.848 7.784 41.424 12.104 64 12.104s44.152-4.32 64-12.104v132.104l-64-48zM352 496l-16-12v-151.312c5.504-2.824 10.84-5.92 16-9.288v172.6zM256 336c-88.224 0-160-71.776-160-160s71.776-160 160-160 160 71.776 160 160-71.776 160-160 160z"></path>
    <path fill="#000" d="M256 32c-79.4 0-144 64.6-144 144s64.6 144 144 144 144-64.6 144-144-64.6-144-144-144zM256 304c-70.576 0-128-57.424-128-128s57.424-128 128-128 128 57.424 128 128-57.424 128-128 128z"></path>
    <path fill="#000" d="M313.176 154.888l-34.472-5.264-15.488-32.984c-1.32-2.816-4.144-4.6-7.24-4.6s-5.92 1.792-7.24 4.6l-15.488 32.984-34.472 5.264c-2.96 0.456-5.424 2.52-6.376 5.368s-0.232 5.976 1.856 8.128l25.168 25.816-5.96 36.512c-0.496 3.024 0.792 6.064 3.288 7.832s5.8 1.944 8.488 0.464l30.728-16.992 30.728 16.992c1.224 0.664 2.56 0.992 3.888 0.992 1.616 0 3.232-0.496 4.608-1.464 2.496-1.768 3.784-4.808 3.288-7.832l-5.96-36.512 25.168-25.816c2.096-2.152 2.816-5.28 1.856-8.128s-3.4-4.904-6.368-5.36zM278.248 185.912c-1.776 1.824-2.576 4.368-2.168 6.872l3.96 24.232-20.176-11.16c-1.208-0.664-2.536-1-3.872-1s-2.664 0.336-3.872 1l-20.176 11.16 3.96-24.232c0.408-2.504-0.4-5.056-2.168-6.872l-17.128-17.552 23.304-3.56c2.632-0.4 4.896-2.088 6.032-4.504l10.056-21.424 10.056 21.424c1.136 2.424 3.4 4.112 6.032 4.504l23.304 3.56-17.144 17.552z"></path>
  </symbol>
  <symbol version="1.1" xmlns="http://www.w3.org/2000/svg" viewBox="0 0 512 512" id="coffee-beans">
    <g id="icomoon-ignore"></g>
    <path fill="#000" d="M493.978 116.397c-0.712-1.391-1.8-2.487-3.175-3.219-12.259-11.704-28.827-18.931-47.010-18.931h-8.525c-98.897 0-179.037 80.14-179.037 179.037 0 17.712 6.848 33.897 18.019 46.055 0.712 1.39 1.8 2.486 3.174 3.219 12.26 11.704 28.828 18.931 47.011 18.931h8.525c98.897 0 179.037-80.14 179.037-179.037 0-17.711-6.847-33.897-18.019-46.055zM435.267 111.299h8.525c13.033 0 24.962 4.947 34.020 13.046-1.923 46.718-40.519 80.736-93.7 80.736-52.687 0-96.579 36.43-107.959 85.028-1.853-5.276-2.873-10.935-2.873-16.825 0.002-89.519 72.469-161.986 161.988-161.986zM332.96 324.438h-8.525c-13.034 0-24.964-4.947-34.023-13.048 1.942-49.466 42.946-89.259 93.702-89.259 54.563 0 96.702-31.042 107.893-76.7 1.897 5.332 2.94 11.059 2.94 17.020 0 89.519-72.468 161.987-161.987 161.987z"></path>
    <path fill="#000" d="M105.327 283.515c10.231 4.263 20.462 6.821 30.692 6.821 6.487 0 12.973-0.881 19.251-2.58 1.082-0.078 2.15-0.402 3.125-0.925 17.219-5.474 32.563-17.2 41.566-34.007l4.263-7.673c21.314-41.775 24.725-88.666 9.379-132.999-16.198-46.038-50.301-82.698-95.486-104.013-16.885-8.238-35.556-9.094-52.276-4.051-1.773 0.054-3.491 0.615-4.877 1.641-15.837 6.019-29.478 17.493-37.482 33.101l-4.263 7.673c-21.314 41.775-24.724 88.667-9.379 132.999 15.345 46.039 49.447 82.698 95.485 104.013zM196.551 117.266c13.641 40.070 11.083 82.698-8.525 120.21l-4.263 7.673c-5.895 11.399-15.964 19.889-27.691 24.486-21.081-11.2-36.442-29.46-42.219-50.916-6.821-23.019-1.706-47.743 11.936-69.057 0 0 0.852 0 0.852-0.852 21.284-47.704 5.922-100.462-35.205-131.082 6.63 0.534 12.823 2.154 19.007 4.902 40.922 19.61 71.614 52.86 86.108 94.635zM34.566 53.325l4.263-6.821c5.423-11.93 15.333-20.405 26.872-24.998 46.462 22.942 66.466 74.571 45.596 120.485-16.198 24.725-21.314 55.416-13.641 82.697 5.394 19.178 16.272 35.824 31.731 48.465-5.852-0.673-11.677-2.294-17.239-4.985-40.923-19.609-71.615-52.859-86.109-94.634-13.64-40.069-11.083-82.697 8.526-120.21z"></path>
    <path fill="#000" d="M285.217 363.656l-5.967-5.967c-75.024-69.909-190.973-66.5-259.177 5.967-12.163 12.972-19.681 29.031-19.657 45.972-0.602 1.88-0.571 3.851 0.253 5.615 1.496 17.488 9.052 32.649 21.961 44.752l5.968 5.967c35.807 30.692 81.846 46.038 127.031 46.038 48.596 0 96.339-17.904 132.147-52.859 12.788-13.64 20.462-30.692 19.609-48.596-0.853-17.902-8.526-34.954-22.167-46.889zM31.154 375.591c61.384-65.647 167.101-68.205 235.306-5.115l6.821 5.967c9.751 8.938 15.617 20.204 16.147 33.051-40.892 36.776-86.353 34.834-126.978-6.621-42.188-42.188-91.698-46.421-140.296-12.723 2.273-5.238 5.317-10.139 9.001-14.56zM39.681 453.175l-5.968-5.967c-9.511-8.719-15.331-19.651-16.104-32.106 47.305-41.223 92.134-41.060 132.904-0.291 24.725 24.724 52.006 37.513 79.288 37.513 18.316 0 36.632-5.687 54.322-17.368-2.409 4.494-5.514 8.629-9.137 12.253-62.238 61.382-167.954 63.94-235.306 5.966z"></path>
  </symbol>
</svg>